<?xml version="1.0" encoding="utf-8" standalone="no"?>
<!DOCTYPE svg PUBLIC "-//W3C//DTD SVG 1.1//EN"
  "http://www.w3.org/Graphics/SVG/1.1/DTD/svg11.dtd">
<svg xmlns:xlink="http://www.w3.org/1999/xlink" width="648pt" height="482.4pt" viewBox="0 0 648 482.4" xmlns="http://www.w3.org/2000/svg" version="1.1">
 <metadata>
  <rdf:RDF xmlns:dc="http://purl.org/dc/elements/1.1/" xmlns:cc="http://creativecommons.org/ns#" xmlns:rdf="http://www.w3.org/1999/02/22-rdf-syntax-ns#">
   <cc:Work>
    <dc:type rdf:resource="http://purl.org/dc/dcmitype/StillImage"/>
    <dc:date>2025-06-12T12:01:54.650003</dc:date>
    <dc:format>image/svg+xml</dc:format>
    <dc:creator>
     <cc:Agent>
      <dc:title>Matplotlib v3.10.3, https://matplotlib.org/</dc:title>
     </cc:Agent>
    </dc:creator>
   </cc:Work>
  </rdf:RDF>
 </metadata>
 <defs>
  <style type="text/css">*{stroke-linejoin: round; stroke-linecap: butt}</style>
 </defs>
 <g id="figure_1">
  <g id="patch_1">
   <path d="M 0 482.4 
L 648 482.4 
L 648 0 
L 0 0 
z
" style="fill: #ffffff; stroke: #ffffff; stroke-linejoin: miter"/>
  </g>
  <g id="axes_1">
   <g id="matplotlib.axis_1">
    <g id="xtick_1"/>
    <g id="xtick_2"/>
    <g id="xtick_3"/>
    <g id="xtick_4"/>
    <g id="xtick_5"/>
    <g id="xtick_6"/>
    <g id="xtick_7"/>
    <g id="xtick_8"/>
    <g id="xtick_9"/>
   </g>
   <g id="matplotlib.axis_2">
    <g id="ytick_1">
     <g id="line2d_1">
      <path d="M 149.902813 400.205357 
" style="fill: none; stroke: #333333; stroke-width: 1.5; stroke-linecap: square"/>
      <defs>
       <path id="mbe7f3def05" d="M 0 0 
L -2.75 0 
" style="stroke: #333333"/>
      </defs>
      <g>
       <use xlink:href="#mbe7f3def05" x="149.902813" y="400.205357" style="fill: #333333; stroke: #333333"/>
      </g>
     </g>
     <g id="text_1">
      <!-- Unassigned -->
      <g style="fill: #4d4d4d" transform="translate(71.219688 405.215826) scale(0.14 -0.14)">
       <defs>
        <path id="ArialMT-55" d="M 3500 4581 
L 4106 4581 
L 4106 1934 
Q 4106 1244 3950 837 
Q 3794 431 3386 176 
Q 2978 -78 2316 -78 
Q 1672 -78 1262 144 
Q 853 366 678 786 
Q 503 1206 503 1934 
L 503 4581 
L 1109 4581 
L 1109 1938 
Q 1109 1341 1220 1058 
Q 1331 775 1601 622 
Q 1872 469 2263 469 
Q 2931 469 3215 772 
Q 3500 1075 3500 1938 
L 3500 4581 
z
" transform="scale(0.015625)"/>
        <path id="ArialMT-6e" d="M 422 0 
L 422 3319 
L 928 3319 
L 928 2847 
Q 1294 3394 1984 3394 
Q 2284 3394 2536 3286 
Q 2788 3178 2913 3003 
Q 3038 2828 3088 2588 
Q 3119 2431 3119 2041 
L 3119 0 
L 2556 0 
L 2556 2019 
Q 2556 2363 2490 2533 
Q 2425 2703 2258 2804 
Q 2091 2906 1866 2906 
Q 1506 2906 1245 2678 
Q 984 2450 984 1813 
L 984 0 
L 422 0 
z
" transform="scale(0.015625)"/>
        <path id="ArialMT-61" d="M 2588 409 
Q 2275 144 1986 34 
Q 1697 -75 1366 -75 
Q 819 -75 525 192 
Q 231 459 231 875 
Q 231 1119 342 1320 
Q 453 1522 633 1644 
Q 813 1766 1038 1828 
Q 1203 1872 1538 1913 
Q 2219 1994 2541 2106 
Q 2544 2222 2544 2253 
Q 2544 2597 2384 2738 
Q 2169 2928 1744 2928 
Q 1347 2928 1158 2789 
Q 969 2650 878 2297 
L 328 2372 
Q 403 2725 575 2942 
Q 747 3159 1072 3276 
Q 1397 3394 1825 3394 
Q 2250 3394 2515 3294 
Q 2781 3194 2906 3042 
Q 3031 2891 3081 2659 
Q 3109 2516 3109 2141 
L 3109 1391 
Q 3109 606 3145 398 
Q 3181 191 3288 0 
L 2700 0 
Q 2613 175 2588 409 
z
M 2541 1666 
Q 2234 1541 1622 1453 
Q 1275 1403 1131 1340 
Q 988 1278 909 1158 
Q 831 1038 831 891 
Q 831 666 1001 516 
Q 1172 366 1500 366 
Q 1825 366 2078 508 
Q 2331 650 2450 897 
Q 2541 1088 2541 1459 
L 2541 1666 
z
" transform="scale(0.015625)"/>
        <path id="ArialMT-73" d="M 197 991 
L 753 1078 
Q 800 744 1014 566 
Q 1228 388 1613 388 
Q 2000 388 2187 545 
Q 2375 703 2375 916 
Q 2375 1106 2209 1216 
Q 2094 1291 1634 1406 
Q 1016 1563 777 1677 
Q 538 1791 414 1992 
Q 291 2194 291 2438 
Q 291 2659 392 2848 
Q 494 3038 669 3163 
Q 800 3259 1026 3326 
Q 1253 3394 1513 3394 
Q 1903 3394 2198 3281 
Q 2494 3169 2634 2976 
Q 2775 2784 2828 2463 
L 2278 2388 
Q 2241 2644 2061 2787 
Q 1881 2931 1553 2931 
Q 1166 2931 1000 2803 
Q 834 2675 834 2503 
Q 834 2394 903 2306 
Q 972 2216 1119 2156 
Q 1203 2125 1616 2013 
Q 2213 1853 2448 1751 
Q 2684 1650 2818 1456 
Q 2953 1263 2953 975 
Q 2953 694 2789 445 
Q 2625 197 2315 61 
Q 2006 -75 1616 -75 
Q 969 -75 630 194 
Q 291 463 197 991 
z
" transform="scale(0.015625)"/>
        <path id="ArialMT-69" d="M 425 3934 
L 425 4581 
L 988 4581 
L 988 3934 
L 425 3934 
z
M 425 0 
L 425 3319 
L 988 3319 
L 988 0 
L 425 0 
z
" transform="scale(0.015625)"/>
        <path id="ArialMT-67" d="M 319 -275 
L 866 -356 
Q 900 -609 1056 -725 
Q 1266 -881 1628 -881 
Q 2019 -881 2231 -725 
Q 2444 -569 2519 -288 
Q 2563 -116 2559 434 
Q 2191 0 1641 0 
Q 956 0 581 494 
Q 206 988 206 1678 
Q 206 2153 378 2554 
Q 550 2956 876 3175 
Q 1203 3394 1644 3394 
Q 2231 3394 2613 2919 
L 2613 3319 
L 3131 3319 
L 3131 450 
Q 3131 -325 2973 -648 
Q 2816 -972 2473 -1159 
Q 2131 -1347 1631 -1347 
Q 1038 -1347 672 -1080 
Q 306 -813 319 -275 
z
M 784 1719 
Q 784 1066 1043 766 
Q 1303 466 1694 466 
Q 2081 466 2343 764 
Q 2606 1063 2606 1700 
Q 2606 2309 2336 2618 
Q 2066 2928 1684 2928 
Q 1309 2928 1046 2623 
Q 784 2319 784 1719 
z
" transform="scale(0.015625)"/>
        <path id="ArialMT-65" d="M 2694 1069 
L 3275 997 
Q 3138 488 2766 206 
Q 2394 -75 1816 -75 
Q 1088 -75 661 373 
Q 234 822 234 1631 
Q 234 2469 665 2931 
Q 1097 3394 1784 3394 
Q 2450 3394 2872 2941 
Q 3294 2488 3294 1666 
Q 3294 1616 3291 1516 
L 816 1516 
Q 847 969 1125 678 
Q 1403 388 1819 388 
Q 2128 388 2347 550 
Q 2566 713 2694 1069 
z
M 847 1978 
L 2700 1978 
Q 2663 2397 2488 2606 
Q 2219 2931 1791 2931 
Q 1403 2931 1139 2672 
Q 875 2413 847 1978 
z
" transform="scale(0.015625)"/>
        <path id="ArialMT-64" d="M 2575 0 
L 2575 419 
Q 2259 -75 1647 -75 
Q 1250 -75 917 144 
Q 584 363 401 755 
Q 219 1147 219 1656 
Q 219 2153 384 2558 
Q 550 2963 881 3178 
Q 1213 3394 1622 3394 
Q 1922 3394 2156 3267 
Q 2391 3141 2538 2938 
L 2538 4581 
L 3097 4581 
L 3097 0 
L 2575 0 
z
M 797 1656 
Q 797 1019 1065 703 
Q 1334 388 1700 388 
Q 2069 388 2326 689 
Q 2584 991 2584 1609 
Q 2584 2291 2321 2609 
Q 2059 2928 1675 2928 
Q 1300 2928 1048 2622 
Q 797 2316 797 1656 
z
" transform="scale(0.015625)"/>
       </defs>
       <use xlink:href="#ArialMT-55"/>
       <use xlink:href="#ArialMT-6e" transform="translate(72.216797 0)"/>
       <use xlink:href="#ArialMT-61" transform="translate(127.832031 0)"/>
       <use xlink:href="#ArialMT-73" transform="translate(183.447266 0)"/>
       <use xlink:href="#ArialMT-73" transform="translate(233.447266 0)"/>
       <use xlink:href="#ArialMT-69" transform="translate(283.447266 0)"/>
       <use xlink:href="#ArialMT-67" transform="translate(305.664062 0)"/>
       <use xlink:href="#ArialMT-6e" transform="translate(361.279297 0)"/>
       <use xlink:href="#ArialMT-65" transform="translate(416.894531 0)"/>
       <use xlink:href="#ArialMT-64" transform="translate(472.509766 0)"/>
      </g>
     </g>
    </g>
    <g id="ytick_2">
     <g id="line2d_2">
      <path d="M 149.902813 306.153348 
" style="fill: none; stroke: #333333; stroke-width: 1.5; stroke-linecap: square"/>
      <g>
       <use xlink:href="#mbe7f3def05" x="149.902813" y="306.153348" style="fill: #333333; stroke: #333333"/>
      </g>
     </g>
     <g id="text_2">
      <!-- Proteolysis general -->
      <g style="fill: #4d4d4d" transform="translate(26.098125 311.163817) scale(0.14 -0.14)">
       <defs>
        <path id="ArialMT-50" d="M 494 0 
L 494 4581 
L 2222 4581 
Q 2678 4581 2919 4538 
Q 3256 4481 3484 4323 
Q 3713 4166 3852 3881 
Q 3991 3597 3991 3256 
Q 3991 2672 3619 2267 
Q 3247 1863 2275 1863 
L 1100 1863 
L 1100 0 
L 494 0 
z
M 1100 2403 
L 2284 2403 
Q 2872 2403 3119 2622 
Q 3366 2841 3366 3238 
Q 3366 3525 3220 3729 
Q 3075 3934 2838 4000 
Q 2684 4041 2272 4041 
L 1100 4041 
L 1100 2403 
z
" transform="scale(0.015625)"/>
        <path id="ArialMT-72" d="M 416 0 
L 416 3319 
L 922 3319 
L 922 2816 
Q 1116 3169 1280 3281 
Q 1444 3394 1641 3394 
Q 1925 3394 2219 3213 
L 2025 2691 
Q 1819 2813 1613 2813 
Q 1428 2813 1281 2702 
Q 1134 2591 1072 2394 
Q 978 2094 978 1738 
L 978 0 
L 416 0 
z
" transform="scale(0.015625)"/>
        <path id="ArialMT-6f" d="M 213 1659 
Q 213 2581 725 3025 
Q 1153 3394 1769 3394 
Q 2453 3394 2887 2945 
Q 3322 2497 3322 1706 
Q 3322 1066 3130 698 
Q 2938 331 2570 128 
Q 2203 -75 1769 -75 
Q 1072 -75 642 372 
Q 213 819 213 1659 
z
M 791 1659 
Q 791 1022 1069 705 
Q 1347 388 1769 388 
Q 2188 388 2466 706 
Q 2744 1025 2744 1678 
Q 2744 2294 2464 2611 
Q 2184 2928 1769 2928 
Q 1347 2928 1069 2612 
Q 791 2297 791 1659 
z
" transform="scale(0.015625)"/>
        <path id="ArialMT-74" d="M 1650 503 
L 1731 6 
Q 1494 -44 1306 -44 
Q 1000 -44 831 53 
Q 663 150 594 308 
Q 525 466 525 972 
L 525 2881 
L 113 2881 
L 113 3319 
L 525 3319 
L 525 4141 
L 1084 4478 
L 1084 3319 
L 1650 3319 
L 1650 2881 
L 1084 2881 
L 1084 941 
Q 1084 700 1114 631 
Q 1144 563 1211 522 
Q 1278 481 1403 481 
Q 1497 481 1650 503 
z
" transform="scale(0.015625)"/>
        <path id="ArialMT-6c" d="M 409 0 
L 409 4581 
L 972 4581 
L 972 0 
L 409 0 
z
" transform="scale(0.015625)"/>
        <path id="ArialMT-79" d="M 397 -1278 
L 334 -750 
Q 519 -800 656 -800 
Q 844 -800 956 -737 
Q 1069 -675 1141 -563 
Q 1194 -478 1313 -144 
Q 1328 -97 1363 -6 
L 103 3319 
L 709 3319 
L 1400 1397 
Q 1534 1031 1641 628 
Q 1738 1016 1872 1384 
L 2581 3319 
L 3144 3319 
L 1881 -56 
Q 1678 -603 1566 -809 
Q 1416 -1088 1222 -1217 
Q 1028 -1347 759 -1347 
Q 597 -1347 397 -1278 
z
" transform="scale(0.015625)"/>
        <path id="ArialMT-20" transform="scale(0.015625)"/>
       </defs>
       <use xlink:href="#ArialMT-50"/>
       <use xlink:href="#ArialMT-72" transform="translate(66.699219 0)"/>
       <use xlink:href="#ArialMT-6f" transform="translate(100 0)"/>
       <use xlink:href="#ArialMT-74" transform="translate(155.615234 0)"/>
       <use xlink:href="#ArialMT-65" transform="translate(183.398438 0)"/>
       <use xlink:href="#ArialMT-6f" transform="translate(239.013672 0)"/>
       <use xlink:href="#ArialMT-6c" transform="translate(294.628906 0)"/>
       <use xlink:href="#ArialMT-79" transform="translate(316.845703 0)"/>
       <use xlink:href="#ArialMT-73" transform="translate(366.845703 0)"/>
       <use xlink:href="#ArialMT-69" transform="translate(416.845703 0)"/>
       <use xlink:href="#ArialMT-73" transform="translate(439.0625 0)"/>
       <use xlink:href="#ArialMT-20" transform="translate(489.0625 0)"/>
       <use xlink:href="#ArialMT-67" transform="translate(516.845703 0)"/>
       <use xlink:href="#ArialMT-65" transform="translate(572.460938 0)"/>
       <use xlink:href="#ArialMT-6e" transform="translate(628.076172 0)"/>
       <use xlink:href="#ArialMT-65" transform="translate(683.691406 0)"/>
       <use xlink:href="#ArialMT-72" transform="translate(739.306641 0)"/>
       <use xlink:href="#ArialMT-61" transform="translate(772.607422 0)"/>
       <use xlink:href="#ArialMT-6c" transform="translate(828.222656 0)"/>
      </g>
     </g>
    </g>
    <g id="ytick_3">
     <g id="line2d_3">
      <path d="M 149.902813 212.101339 
" style="fill: none; stroke: #333333; stroke-width: 1.5; stroke-linecap: square"/>
      <g>
       <use xlink:href="#mbe7f3def05" x="149.902813" y="212.101339" style="fill: #333333; stroke: #333333"/>
      </g>
     </g>
     <g id="text_3">
      <!-- Stress response -->
      <g style="fill: #4d4d4d" transform="translate(44.000625 217.197121) scale(0.14 -0.14)">
       <defs>
        <path id="ArialMT-53" d="M 288 1472 
L 859 1522 
Q 900 1178 1048 958 
Q 1197 738 1509 602 
Q 1822 466 2213 466 
Q 2559 466 2825 569 
Q 3091 672 3220 851 
Q 3350 1031 3350 1244 
Q 3350 1459 3225 1620 
Q 3100 1781 2813 1891 
Q 2628 1963 1997 2114 
Q 1366 2266 1113 2400 
Q 784 2572 623 2826 
Q 463 3081 463 3397 
Q 463 3744 659 4045 
Q 856 4347 1234 4503 
Q 1613 4659 2075 4659 
Q 2584 4659 2973 4495 
Q 3363 4331 3572 4012 
Q 3781 3694 3797 3291 
L 3216 3247 
Q 3169 3681 2898 3903 
Q 2628 4125 2100 4125 
Q 1550 4125 1298 3923 
Q 1047 3722 1047 3438 
Q 1047 3191 1225 3031 
Q 1400 2872 2139 2705 
Q 2878 2538 3153 2413 
Q 3553 2228 3743 1945 
Q 3934 1663 3934 1294 
Q 3934 928 3725 604 
Q 3516 281 3123 101 
Q 2731 -78 2241 -78 
Q 1619 -78 1198 103 
Q 778 284 539 648 
Q 300 1013 288 1472 
z
" transform="scale(0.015625)"/>
        <path id="ArialMT-70" d="M 422 -1272 
L 422 3319 
L 934 3319 
L 934 2888 
Q 1116 3141 1344 3267 
Q 1572 3394 1897 3394 
Q 2322 3394 2647 3175 
Q 2972 2956 3137 2557 
Q 3303 2159 3303 1684 
Q 3303 1175 3120 767 
Q 2938 359 2589 142 
Q 2241 -75 1856 -75 
Q 1575 -75 1351 44 
Q 1128 163 984 344 
L 984 -1272 
L 422 -1272 
z
M 931 1641 
Q 931 1000 1190 694 
Q 1450 388 1819 388 
Q 2194 388 2461 705 
Q 2728 1022 2728 1688 
Q 2728 2322 2467 2637 
Q 2206 2953 1844 2953 
Q 1484 2953 1207 2617 
Q 931 2281 931 1641 
z
" transform="scale(0.015625)"/>
       </defs>
       <use xlink:href="#ArialMT-53"/>
       <use xlink:href="#ArialMT-74" transform="translate(66.699219 0)"/>
       <use xlink:href="#ArialMT-72" transform="translate(94.482422 0)"/>
       <use xlink:href="#ArialMT-65" transform="translate(127.783203 0)"/>
       <use xlink:href="#ArialMT-73" transform="translate(183.398438 0)"/>
       <use xlink:href="#ArialMT-73" transform="translate(233.398438 0)"/>
       <use xlink:href="#ArialMT-20" transform="translate(283.398438 0)"/>
       <use xlink:href="#ArialMT-72" transform="translate(311.181641 0)"/>
       <use xlink:href="#ArialMT-65" transform="translate(344.482422 0)"/>
       <use xlink:href="#ArialMT-73" transform="translate(400.097656 0)"/>
       <use xlink:href="#ArialMT-70" transform="translate(450.097656 0)"/>
       <use xlink:href="#ArialMT-6f" transform="translate(505.712891 0)"/>
       <use xlink:href="#ArialMT-6e" transform="translate(561.328125 0)"/>
       <use xlink:href="#ArialMT-73" transform="translate(616.943359 0)"/>
       <use xlink:href="#ArialMT-65" transform="translate(666.943359 0)"/>
      </g>
     </g>
    </g>
    <g id="ytick_4">
     <g id="line2d_4">
      <path d="M 149.902813 118.04933 
" style="fill: none; stroke: #333333; stroke-width: 1.5; stroke-linecap: square"/>
      <g>
       <use xlink:href="#mbe7f3def05" x="149.902813" y="118.04933" style="fill: #333333; stroke: #333333"/>
      </g>
     </g>
     <g id="text_4">
      <!-- Metabolism -->
      <g style="fill: #4d4d4d" transform="translate(73.577813 123.059799) scale(0.14 -0.14)">
       <defs>
        <path id="ArialMT-4d" d="M 475 0 
L 475 4581 
L 1388 4581 
L 2472 1338 
Q 2622 884 2691 659 
Q 2769 909 2934 1394 
L 4031 4581 
L 4847 4581 
L 4847 0 
L 4263 0 
L 4263 3834 
L 2931 0 
L 2384 0 
L 1059 3900 
L 1059 0 
L 475 0 
z
" transform="scale(0.015625)"/>
        <path id="ArialMT-62" d="M 941 0 
L 419 0 
L 419 4581 
L 981 4581 
L 981 2947 
Q 1338 3394 1891 3394 
Q 2197 3394 2470 3270 
Q 2744 3147 2920 2923 
Q 3097 2700 3197 2384 
Q 3297 2069 3297 1709 
Q 3297 856 2875 390 
Q 2453 -75 1863 -75 
Q 1275 -75 941 416 
L 941 0 
z
M 934 1684 
Q 934 1088 1097 822 
Q 1363 388 1816 388 
Q 2184 388 2453 708 
Q 2722 1028 2722 1663 
Q 2722 2313 2464 2622 
Q 2206 2931 1841 2931 
Q 1472 2931 1203 2611 
Q 934 2291 934 1684 
z
" transform="scale(0.015625)"/>
        <path id="ArialMT-6d" d="M 422 0 
L 422 3319 
L 925 3319 
L 925 2853 
Q 1081 3097 1340 3245 
Q 1600 3394 1931 3394 
Q 2300 3394 2536 3241 
Q 2772 3088 2869 2813 
Q 3263 3394 3894 3394 
Q 4388 3394 4653 3120 
Q 4919 2847 4919 2278 
L 4919 0 
L 4359 0 
L 4359 2091 
Q 4359 2428 4304 2576 
Q 4250 2725 4106 2815 
Q 3963 2906 3769 2906 
Q 3419 2906 3187 2673 
Q 2956 2441 2956 1928 
L 2956 0 
L 2394 0 
L 2394 2156 
Q 2394 2531 2256 2718 
Q 2119 2906 1806 2906 
Q 1569 2906 1367 2781 
Q 1166 2656 1075 2415 
Q 984 2175 984 1722 
L 984 0 
L 422 0 
z
" transform="scale(0.015625)"/>
       </defs>
       <use xlink:href="#ArialMT-4d"/>
       <use xlink:href="#ArialMT-65" transform="translate(83.300781 0)"/>
       <use xlink:href="#ArialMT-74" transform="translate(138.916016 0)"/>
       <use xlink:href="#ArialMT-61" transform="translate(166.699219 0)"/>
       <use xlink:href="#ArialMT-62" transform="translate(222.314453 0)"/>
       <use xlink:href="#ArialMT-6f" transform="translate(277.929688 0)"/>
       <use xlink:href="#ArialMT-6c" transform="translate(333.544922 0)"/>
       <use xlink:href="#ArialMT-69" transform="translate(355.761719 0)"/>
       <use xlink:href="#ArialMT-73" transform="translate(377.978516 0)"/>
       <use xlink:href="#ArialMT-6d" transform="translate(427.978516 0)"/>
      </g>
     </g>
    </g>
   </g>
   <g id="PathCollection_1">
    <path d="M 355.283348 126.468486 
C 357.516134 126.468486 359.657771 125.581391 361.23659 124.002573 
C 362.815408 122.423754 363.702503 120.282117 363.702503 118.04933 
C 363.702503 115.816544 362.815408 113.674906 361.23659 112.096088 
C 359.657771 110.51727 357.516134 109.630175 355.283348 109.630175 
C 353.050561 109.630175 350.908924 110.51727 349.330105 112.096088 
C 347.751287 113.674906 346.864192 115.816544 346.864192 118.04933 
C 346.864192 120.282117 347.751287 122.423754 349.330105 124.002573 
C 350.908924 125.581391 353.050561 126.468486 355.283348 126.468486 
z
" clip-path="url(#pe3e145645d)" style="fill: #ff4500; stroke: #ff4500; stroke-width: 0.886227"/>
    <path d="M 355.283348 218.748041 
C 357.046074 218.748041 358.73684 218.047703 359.983276 216.801267 
C 361.229711 215.554832 361.93005 213.864065 361.93005 212.101339 
C 361.93005 210.338613 361.229711 208.647847 359.983276 207.401411 
C 358.73684 206.154976 357.046074 205.454637 355.283348 205.454637 
C 353.520622 205.454637 351.829855 206.154976 350.58342 207.401411 
C 349.336984 208.647847 348.636646 210.338613 348.636646 212.101339 
C 348.636646 213.864065 349.336984 215.554832 350.58342 216.801267 
C 351.829855 218.047703 353.520622 218.748041 355.283348 218.748041 
z
" clip-path="url(#pe3e145645d)" style="fill: #ff4500; stroke: #ff4500; stroke-width: 0.886227"/>
    <path d="M 355.283348 311.913823 
C 356.811043 311.913823 358.276374 311.306863 359.356619 310.226619 
C 360.436863 309.146375 361.043823 307.681044 361.043823 306.153348 
C 361.043823 304.625652 360.436863 303.160321 359.356619 302.080077 
C 358.276374 300.999833 356.811043 300.392873 355.283348 300.392873 
C 353.755652 300.392873 352.290321 300.999833 351.210077 302.080077 
C 350.129833 303.160321 349.522873 304.625652 349.522873 306.153348 
C 349.522873 307.681044 350.129833 309.146375 351.210077 310.226619 
C 352.290321 311.306863 353.755652 311.913823 355.283348 311.913823 
z
" clip-path="url(#pe3e145645d)" style="fill: #ffa500; stroke: #ffa500; stroke-width: 0.886227"/>
    <path d="M 355.283348 409.51074 
C 357.751164 409.51074 360.118237 408.530266 361.863247 406.785256 
C 363.608256 405.040247 364.58873 402.673173 364.58873 400.205357 
C 364.58873 397.737541 363.608256 395.370468 361.863247 393.625458 
C 360.118237 391.880448 357.751164 390.899974 355.283348 390.899974 
C 352.815531 390.899974 350.448458 391.880448 348.703448 393.625458 
C 346.958439 395.370468 345.977965 397.737541 345.977965 400.205357 
C 345.977965 402.673173 346.958439 405.040247 348.703448 406.785256 
C 350.448458 408.530266 352.815531 409.51074 355.283348 409.51074 
z
" clip-path="url(#pe3e145645d)" style="fill: #ffd700; stroke: #ffd700; stroke-width: 0.886227"/>
   </g>
  </g>
  <g id="text_5">
   <!-- Category 1 padj kenyon whole genome -->
   <g transform="translate(233.879285 16.671562) scale(0.14 -0.14)">
    <defs>
     <path id="ArialMT-43" d="M 3763 1606 
L 4369 1453 
Q 4178 706 3683 314 
Q 3188 -78 2472 -78 
Q 1731 -78 1267 223 
Q 803 525 561 1097 
Q 319 1669 319 2325 
Q 319 3041 592 3573 
Q 866 4106 1370 4382 
Q 1875 4659 2481 4659 
Q 3169 4659 3637 4309 
Q 4106 3959 4291 3325 
L 3694 3184 
Q 3534 3684 3231 3912 
Q 2928 4141 2469 4141 
Q 1941 4141 1586 3887 
Q 1231 3634 1087 3207 
Q 944 2781 944 2328 
Q 944 1744 1114 1308 
Q 1284 872 1643 656 
Q 2003 441 2422 441 
Q 2931 441 3284 734 
Q 3638 1028 3763 1606 
z
" transform="scale(0.015625)"/>
     <path id="ArialMT-31" d="M 2384 0 
L 1822 0 
L 1822 3584 
Q 1619 3391 1289 3197 
Q 959 3003 697 2906 
L 697 3450 
Q 1169 3672 1522 3987 
Q 1875 4303 2022 4600 
L 2384 4600 
L 2384 0 
z
" transform="scale(0.015625)"/>
     <path id="ArialMT-6a" d="M 419 3928 
L 419 4581 
L 981 4581 
L 981 3928 
L 419 3928 
z
M -294 -1288 
L -188 -809 
Q -19 -853 78 -853 
Q 250 -853 334 -739 
Q 419 -625 419 -169 
L 419 3319 
L 981 3319 
L 981 -181 
Q 981 -794 822 -1034 
Q 619 -1347 147 -1347 
Q -81 -1347 -294 -1288 
z
" transform="scale(0.015625)"/>
     <path id="ArialMT-6b" d="M 425 0 
L 425 4581 
L 988 4581 
L 988 1969 
L 2319 3319 
L 3047 3319 
L 1778 2088 
L 3175 0 
L 2481 0 
L 1384 1697 
L 988 1316 
L 988 0 
L 425 0 
z
" transform="scale(0.015625)"/>
     <path id="ArialMT-77" d="M 1034 0 
L 19 3319 
L 600 3319 
L 1128 1403 
L 1325 691 
Q 1338 744 1497 1375 
L 2025 3319 
L 2603 3319 
L 3100 1394 
L 3266 759 
L 3456 1400 
L 4025 3319 
L 4572 3319 
L 3534 0 
L 2950 0 
L 2422 1988 
L 2294 2553 
L 1622 0 
L 1034 0 
z
" transform="scale(0.015625)"/>
     <path id="ArialMT-68" d="M 422 0 
L 422 4581 
L 984 4581 
L 984 2938 
Q 1378 3394 1978 3394 
Q 2347 3394 2619 3248 
Q 2891 3103 3008 2847 
Q 3125 2591 3125 2103 
L 3125 0 
L 2563 0 
L 2563 2103 
Q 2563 2525 2380 2717 
Q 2197 2909 1863 2909 
Q 1613 2909 1392 2779 
Q 1172 2650 1078 2428 
Q 984 2206 984 1816 
L 984 0 
L 422 0 
z
" transform="scale(0.015625)"/>
    </defs>
    <use xlink:href="#ArialMT-43"/>
    <use xlink:href="#ArialMT-61" transform="translate(72.216797 0)"/>
    <use xlink:href="#ArialMT-74" transform="translate(127.832031 0)"/>
    <use xlink:href="#ArialMT-65" transform="translate(155.615234 0)"/>
    <use xlink:href="#ArialMT-67" transform="translate(211.230469 0)"/>
    <use xlink:href="#ArialMT-6f" transform="translate(266.845703 0)"/>
    <use xlink:href="#ArialMT-72" transform="translate(322.460938 0)"/>
    <use xlink:href="#ArialMT-79" transform="translate(355.761719 0)"/>
    <use xlink:href="#ArialMT-20" transform="translate(405.761719 0)"/>
    <use xlink:href="#ArialMT-31" transform="translate(433.544922 0)"/>
    <use xlink:href="#ArialMT-20" transform="translate(489.160156 0)"/>
    <use xlink:href="#ArialMT-70" transform="translate(516.943359 0)"/>
    <use xlink:href="#ArialMT-61" transform="translate(572.558594 0)"/>
    <use xlink:href="#ArialMT-64" transform="translate(628.173828 0)"/>
    <use xlink:href="#ArialMT-6a" transform="translate(683.789062 0)"/>
    <use xlink:href="#ArialMT-20" transform="translate(706.005859 0)"/>
    <use xlink:href="#ArialMT-6b" transform="translate(733.789062 0)"/>
    <use xlink:href="#ArialMT-65" transform="translate(783.789062 0)"/>
    <use xlink:href="#ArialMT-6e" transform="translate(839.404297 0)"/>
    <use xlink:href="#ArialMT-79" transform="translate(895.019531 0)"/>
    <use xlink:href="#ArialMT-6f" transform="translate(945.019531 0)"/>
    <use xlink:href="#ArialMT-6e" transform="translate(1000.634766 0)"/>
    <use xlink:href="#ArialMT-20" transform="translate(1056.25 0)"/>
    <use xlink:href="#ArialMT-77" transform="translate(1084.033203 0)"/>
    <use xlink:href="#ArialMT-68" transform="translate(1156.25 0)"/>
    <use xlink:href="#ArialMT-6f" transform="translate(1211.865234 0)"/>
    <use xlink:href="#ArialMT-6c" transform="translate(1267.480469 0)"/>
    <use xlink:href="#ArialMT-65" transform="translate(1289.697266 0)"/>
    <use xlink:href="#ArialMT-20" transform="translate(1345.3125 0)"/>
    <use xlink:href="#ArialMT-67" transform="translate(1373.095703 0)"/>
    <use xlink:href="#ArialMT-65" transform="translate(1428.710938 0)"/>
    <use xlink:href="#ArialMT-6e" transform="translate(1484.326172 0)"/>
    <use xlink:href="#ArialMT-6f" transform="translate(1539.941406 0)"/>
    <use xlink:href="#ArialMT-6d" transform="translate(1595.556641 0)"/>
    <use xlink:href="#ArialMT-65" transform="translate(1678.857422 0)"/>
   </g>
  </g>
  <g id="text_6">
   <!--   -->
   <g transform="translate(353.33866 473.1375) scale(0.14 -0.14)">
    <use xlink:href="#ArialMT-20"/>
   </g>
  </g>
  <g id="text_7">
   <!-- Category -->
   <g transform="translate(16.671563 287.52875) rotate(-90) scale(0.14 -0.14)">
    <use xlink:href="#ArialMT-43"/>
    <use xlink:href="#ArialMT-61" transform="translate(72.216797 0)"/>
    <use xlink:href="#ArialMT-74" transform="translate(127.832031 0)"/>
    <use xlink:href="#ArialMT-65" transform="translate(155.615234 0)"/>
    <use xlink:href="#ArialMT-67" transform="translate(211.230469 0)"/>
    <use xlink:href="#ArialMT-6f" transform="translate(266.845703 0)"/>
    <use xlink:href="#ArialMT-72" transform="translate(322.460938 0)"/>
    <use xlink:href="#ArialMT-79" transform="translate(355.761719 0)"/>
   </g>
  </g>
  <g id="patch_2">
   <path d="M 580.103883 443.328354 
L 641.52 443.328354 
L 641.52 74.926333 
L 580.103883 74.926333 
z
" style="fill: #ffffff"/>
  </g>
  <g id="text_8">
   <!-- P value -->
   <g transform="translate(581.103883 85.947271) scale(0.14 -0.14)">
    <defs>
     <path id="ArialMT-76" d="M 1344 0 
L 81 3319 
L 675 3319 
L 1388 1331 
Q 1503 1009 1600 663 
Q 1675 925 1809 1294 
L 2547 3319 
L 3125 3319 
L 1869 0 
L 1344 0 
z
" transform="scale(0.015625)"/>
     <path id="ArialMT-75" d="M 2597 0 
L 2597 488 
Q 2209 -75 1544 -75 
Q 1250 -75 995 37 
Q 741 150 617 320 
Q 494 491 444 738 
Q 409 903 409 1263 
L 409 3319 
L 972 3319 
L 972 1478 
Q 972 1038 1006 884 
Q 1059 663 1231 536 
Q 1403 409 1656 409 
Q 1909 409 2131 539 
Q 2353 669 2445 892 
Q 2538 1116 2538 1541 
L 2538 3319 
L 3100 3319 
L 3100 0 
L 2597 0 
z
" transform="scale(0.015625)"/>
    </defs>
    <use xlink:href="#ArialMT-50"/>
    <use xlink:href="#ArialMT-20" transform="translate(64.949219 0)"/>
    <use xlink:href="#ArialMT-76" transform="translate(92.732422 0)"/>
    <use xlink:href="#ArialMT-61" transform="translate(142.732422 0)"/>
    <use xlink:href="#ArialMT-6c" transform="translate(198.347656 0)"/>
    <use xlink:href="#ArialMT-75" transform="translate(220.564453 0)"/>
    <use xlink:href="#ArialMT-65" transform="translate(276.179688 0)"/>
   </g>
  </g>
  <g id="patch_3">
   <path d="M 582.103883 106.809771 
L 595.943883 106.809771 
L 595.943883 92.969771 
L 582.103883 92.969771 
z
" clip-path="url(#p17a8d41768)" style="fill: #ffffff; stroke: #ffffff; stroke-linejoin: miter"/>
  </g>
  <g id="line2d_5">
   <path d="M 589.023883 99.889771 
" clip-path="url(#p17a8d41768)" style="fill: none; stroke: #1f77b4; stroke-width: 1.5; stroke-linecap: square"/>
   <defs>
    <path id="m7dac0341c4" d="M 0 1.772454 
C 0.47006 1.772454 0.920931 1.585697 1.253314 1.253314 
C 1.585697 0.920931 1.772454 0.47006 1.772454 0 
C 1.772454 -0.47006 1.585697 -0.920931 1.253314 -1.253314 
C 0.920931 -1.585697 0.47006 -1.772454 0 -1.772454 
C -0.47006 -1.772454 -0.920931 -1.585697 -1.253314 -1.253314 
C -1.585697 -0.920931 -1.772454 -0.47006 -1.772454 0 
C -1.772454 0.47006 -1.585697 0.920931 -1.253314 1.253314 
C -0.920931 1.585697 -0.47006 1.772454 0 1.772454 
z
" style="stroke: #8b0000; stroke-width: 0.886227"/>
   </defs>
   <g clip-path="url(#p17a8d41768)">
    <use xlink:href="#m7dac0341c4" x="589.023883" y="99.889771" style="fill: #8b0000; stroke: #8b0000; stroke-width: 0.886227"/>
   </g>
  </g>
  <g id="text_9">
   <!-- 10-40 -->
   <g transform="translate(600.159883 103.508989) scale(0.14 -0.14)">
    <defs>
     <path id="ArialMT-30" d="M 266 2259 
Q 266 3072 433 3567 
Q 600 4063 929 4331 
Q 1259 4600 1759 4600 
Q 2128 4600 2406 4451 
Q 2684 4303 2865 4023 
Q 3047 3744 3150 3342 
Q 3253 2941 3253 2259 
Q 3253 1453 3087 958 
Q 2922 463 2592 192 
Q 2263 -78 1759 -78 
Q 1097 -78 719 397 
Q 266 969 266 2259 
z
M 844 2259 
Q 844 1131 1108 757 
Q 1372 384 1759 384 
Q 2147 384 2411 759 
Q 2675 1134 2675 2259 
Q 2675 3391 2411 3762 
Q 2147 4134 1753 4134 
Q 1366 4134 1134 3806 
Q 844 3388 844 2259 
z
" transform="scale(0.015625)"/>
     <path id="ArialMT-2d" d="M 203 1375 
L 203 1941 
L 1931 1941 
L 1931 1375 
L 203 1375 
z
" transform="scale(0.015625)"/>
     <path id="ArialMT-34" d="M 2069 0 
L 2069 1097 
L 81 1097 
L 81 1613 
L 2172 4581 
L 2631 4581 
L 2631 1613 
L 3250 1613 
L 3250 1097 
L 2631 1097 
L 2631 0 
L 2069 0 
z
M 2069 1613 
L 2069 3678 
L 634 1613 
L 2069 1613 
z
" transform="scale(0.015625)"/>
    </defs>
    <use xlink:href="#ArialMT-31"/>
    <use xlink:href="#ArialMT-30" transform="translate(55.615234 0)"/>
    <use xlink:href="#ArialMT-2d" transform="translate(111.230469 0)"/>
    <use xlink:href="#ArialMT-34" transform="translate(144.53125 0)"/>
    <use xlink:href="#ArialMT-30" transform="translate(200.146484 0)"/>
   </g>
  </g>
  <g id="patch_4">
   <path d="M 582.103883 124.649771 
L 595.943883 124.649771 
L 595.943883 110.809771 
L 582.103883 110.809771 
z
" clip-path="url(#p6f775b6aaa)" style="fill: #ffffff; stroke: #ffffff; stroke-linejoin: miter"/>
  </g>
  <g id="line2d_6">
   <path d="M 589.023883 117.729771 
" clip-path="url(#p6f775b6aaa)" style="fill: none; stroke: #1f77b4; stroke-width: 1.5; stroke-linecap: square"/>
   <defs>
    <path id="m15cff99eab" d="M 0 1.772454 
C 0.47006 1.772454 0.920931 1.585697 1.253314 1.253314 
C 1.585697 0.920931 1.772454 0.47006 1.772454 0 
C 1.772454 -0.47006 1.585697 -0.920931 1.253314 -1.253314 
C 0.920931 -1.585697 0.47006 -1.772454 0 -1.772454 
C -0.47006 -1.772454 -0.920931 -1.585697 -1.253314 -1.253314 
C -1.585697 -0.920931 -1.772454 -0.47006 -1.772454 0 
C -1.772454 0.47006 -1.585697 0.920931 -1.253314 1.253314 
C -0.920931 1.585697 -0.47006 1.772454 0 1.772454 
z
" style="stroke: #ff4500; stroke-width: 0.886227"/>
   </defs>
   <g clip-path="url(#p6f775b6aaa)">
    <use xlink:href="#m15cff99eab" x="589.023883" y="117.729771" style="fill: #ff4500; stroke: #ff4500; stroke-width: 0.886227"/>
   </g>
  </g>
  <g id="text_10">
   <!-- 10-20 -->
   <g transform="translate(600.159883 121.348989) scale(0.14 -0.14)">
    <defs>
     <path id="ArialMT-32" d="M 3222 541 
L 3222 0 
L 194 0 
Q 188 203 259 391 
Q 375 700 629 1000 
Q 884 1300 1366 1694 
Q 2113 2306 2375 2664 
Q 2638 3022 2638 3341 
Q 2638 3675 2398 3904 
Q 2159 4134 1775 4134 
Q 1369 4134 1125 3890 
Q 881 3647 878 3216 
L 300 3275 
Q 359 3922 746 4261 
Q 1134 4600 1788 4600 
Q 2447 4600 2831 4234 
Q 3216 3869 3216 3328 
Q 3216 3053 3103 2787 
Q 2991 2522 2730 2228 
Q 2469 1934 1863 1422 
Q 1356 997 1212 845 
Q 1069 694 975 541 
L 3222 541 
z
" transform="scale(0.015625)"/>
    </defs>
    <use xlink:href="#ArialMT-31"/>
    <use xlink:href="#ArialMT-30" transform="translate(55.615234 0)"/>
    <use xlink:href="#ArialMT-2d" transform="translate(111.230469 0)"/>
    <use xlink:href="#ArialMT-32" transform="translate(144.53125 0)"/>
    <use xlink:href="#ArialMT-30" transform="translate(200.146484 0)"/>
   </g>
  </g>
  <g id="patch_5">
   <path d="M 582.103883 142.489771 
L 595.943883 142.489771 
L 595.943883 128.649771 
L 582.103883 128.649771 
z
" clip-path="url(#p9a28e13ed1)" style="fill: #ffffff; stroke: #ffffff; stroke-linejoin: miter"/>
  </g>
  <g id="line2d_7">
   <path d="M 589.023883 135.569771 
" clip-path="url(#p9a28e13ed1)" style="fill: none; stroke: #1f77b4; stroke-width: 1.5; stroke-linecap: square"/>
   <defs>
    <path id="m2256a4a024" d="M 0 1.772454 
C 0.47006 1.772454 0.920931 1.585697 1.253314 1.253314 
C 1.585697 0.920931 1.772454 0.47006 1.772454 0 
C 1.772454 -0.47006 1.585697 -0.920931 1.253314 -1.253314 
C 0.920931 -1.585697 0.47006 -1.772454 0 -1.772454 
C -0.47006 -1.772454 -0.920931 -1.585697 -1.253314 -1.253314 
C -1.585697 -0.920931 -1.772454 -0.47006 -1.772454 0 
C -1.772454 0.47006 -1.585697 0.920931 -1.253314 1.253314 
C -0.920931 1.585697 -0.47006 1.772454 0 1.772454 
z
" style="stroke: #ff6347; stroke-width: 0.886227"/>
   </defs>
   <g clip-path="url(#p9a28e13ed1)">
    <use xlink:href="#m2256a4a024" x="589.023883" y="135.569771" style="fill: #ff6347; stroke: #ff6347; stroke-width: 0.886227"/>
   </g>
  </g>
  <g id="text_11">
   <!-- 10-10 -->
   <g transform="translate(600.159883 139.188989) scale(0.14 -0.14)">
    <use xlink:href="#ArialMT-31"/>
    <use xlink:href="#ArialMT-30" transform="translate(55.615234 0)"/>
    <use xlink:href="#ArialMT-2d" transform="translate(111.230469 0)"/>
    <use xlink:href="#ArialMT-31" transform="translate(144.53125 0)"/>
    <use xlink:href="#ArialMT-30" transform="translate(200.146484 0)"/>
   </g>
  </g>
  <g id="patch_6">
   <path d="M 582.103883 160.329771 
L 595.943883 160.329771 
L 595.943883 146.489771 
L 582.103883 146.489771 
z
" clip-path="url(#pdc1495902d)" style="fill: #ffffff; stroke: #ffffff; stroke-linejoin: miter"/>
  </g>
  <g id="line2d_8">
   <path d="M 589.023883 153.409771 
" clip-path="url(#pdc1495902d)" style="fill: none; stroke: #1f77b4; stroke-width: 1.5; stroke-linecap: square"/>
   <defs>
    <path id="mb6b08c1163" d="M 0 1.772454 
C 0.47006 1.772454 0.920931 1.585697 1.253314 1.253314 
C 1.585697 0.920931 1.772454 0.47006 1.772454 0 
C 1.772454 -0.47006 1.585697 -0.920931 1.253314 -1.253314 
C 0.920931 -1.585697 0.47006 -1.772454 0 -1.772454 
C -0.47006 -1.772454 -0.920931 -1.585697 -1.253314 -1.253314 
C -1.585697 -0.920931 -1.772454 -0.47006 -1.772454 0 
C -1.772454 0.47006 -1.585697 0.920931 -1.253314 1.253314 
C -0.920931 1.585697 -0.47006 1.772454 0 1.772454 
z
" style="stroke: #ffa500; stroke-width: 0.886227"/>
   </defs>
   <g clip-path="url(#pdc1495902d)">
    <use xlink:href="#mb6b08c1163" x="589.023883" y="153.409771" style="fill: #ffa500; stroke: #ffa500; stroke-width: 0.886227"/>
   </g>
  </g>
  <g id="text_12">
   <!-- 10-5 -->
   <g transform="translate(600.159883 157.028989) scale(0.14 -0.14)">
    <defs>
     <path id="ArialMT-35" d="M 266 1200 
L 856 1250 
Q 922 819 1161 601 
Q 1400 384 1738 384 
Q 2144 384 2425 690 
Q 2706 997 2706 1503 
Q 2706 1984 2436 2262 
Q 2166 2541 1728 2541 
Q 1456 2541 1237 2417 
Q 1019 2294 894 2097 
L 366 2166 
L 809 4519 
L 3088 4519 
L 3088 3981 
L 1259 3981 
L 1013 2750 
Q 1425 3038 1878 3038 
Q 2478 3038 2890 2622 
Q 3303 2206 3303 1553 
Q 3303 931 2941 478 
Q 2500 -78 1738 -78 
Q 1113 -78 717 272 
Q 322 622 266 1200 
z
" transform="scale(0.015625)"/>
    </defs>
    <use xlink:href="#ArialMT-31"/>
    <use xlink:href="#ArialMT-30" transform="translate(55.615234 0)"/>
    <use xlink:href="#ArialMT-2d" transform="translate(111.230469 0)"/>
    <use xlink:href="#ArialMT-35" transform="translate(144.53125 0)"/>
   </g>
  </g>
  <g id="patch_7">
   <path d="M 582.103883 178.169771 
L 595.943883 178.169771 
L 595.943883 164.329771 
L 582.103883 164.329771 
z
" clip-path="url(#p61badd5118)" style="fill: #ffffff; stroke: #ffffff; stroke-linejoin: miter"/>
  </g>
  <g id="line2d_9">
   <path d="M 589.023883 171.249771 
" clip-path="url(#p61badd5118)" style="fill: none; stroke: #1f77b4; stroke-width: 1.5; stroke-linecap: square"/>
   <defs>
    <path id="m9db5da02dc" d="M 0 1.772454 
C 0.47006 1.772454 0.920931 1.585697 1.253314 1.253314 
C 1.585697 0.920931 1.772454 0.47006 1.772454 0 
C 1.772454 -0.47006 1.585697 -0.920931 1.253314 -1.253314 
C 0.920931 -1.585697 0.47006 -1.772454 0 -1.772454 
C -0.47006 -1.772454 -0.920931 -1.585697 -1.253314 -1.253314 
C -1.585697 -0.920931 -1.772454 -0.47006 -1.772454 0 
C -1.772454 0.47006 -1.585697 0.920931 -1.253314 1.253314 
C -0.920931 1.585697 -0.47006 1.772454 0 1.772454 
z
" style="stroke: #ffd700; stroke-width: 0.886227"/>
   </defs>
   <g clip-path="url(#p61badd5118)">
    <use xlink:href="#m9db5da02dc" x="589.023883" y="171.249771" style="fill: #ffd700; stroke: #ffd700; stroke-width: 0.886227"/>
   </g>
  </g>
  <g id="text_13">
   <!-- 0.001 -->
   <g transform="translate(600.159883 174.868989) scale(0.14 -0.14)">
    <defs>
     <path id="ArialMT-2e" d="M 581 0 
L 581 641 
L 1222 641 
L 1222 0 
L 581 0 
z
" transform="scale(0.015625)"/>
    </defs>
    <use xlink:href="#ArialMT-30"/>
    <use xlink:href="#ArialMT-2e" transform="translate(55.615234 0)"/>
    <use xlink:href="#ArialMT-30" transform="translate(83.398438 0)"/>
    <use xlink:href="#ArialMT-30" transform="translate(139.013672 0)"/>
    <use xlink:href="#ArialMT-31" transform="translate(194.628906 0)"/>
   </g>
  </g>
  <g id="patch_8">
   <path d="M 582.103883 196.009771 
L 595.943883 196.009771 
L 595.943883 182.169771 
L 582.103883 182.169771 
z
" clip-path="url(#p6f8bafe40a)" style="fill: #ffffff; stroke: #ffffff; stroke-linejoin: miter"/>
  </g>
  <g id="line2d_10">
   <path d="M 589.023883 189.089771 
" clip-path="url(#p6f8bafe40a)" style="fill: none; stroke: #1f77b4; stroke-width: 1.5; stroke-linecap: square"/>
   <defs>
    <path id="m4103d5778b" d="M 0 1.772454 
C 0.47006 1.772454 0.920931 1.585697 1.253314 1.253314 
C 1.585697 0.920931 1.772454 0.47006 1.772454 0 
C 1.772454 -0.47006 1.585697 -0.920931 1.253314 -1.253314 
C 0.920931 -1.585697 0.47006 -1.772454 0 -1.772454 
C -0.47006 -1.772454 -0.920931 -1.585697 -1.253314 -1.253314 
C -1.585697 -0.920931 -1.772454 -0.47006 -1.772454 0 
C -1.772454 0.47006 -1.585697 0.920931 -1.253314 1.253314 
C -0.920931 1.585697 -0.47006 1.772454 0 1.772454 
z
" style="stroke: #ffff00; stroke-width: 0.886227"/>
   </defs>
   <g clip-path="url(#p6f8bafe40a)">
    <use xlink:href="#m4103d5778b" x="589.023883" y="189.089771" style="fill: #ffff00; stroke: #ffff00; stroke-width: 0.886227"/>
   </g>
  </g>
  <g id="text_14">
   <!-- 0.05 -->
   <g transform="translate(600.159883 192.708989) scale(0.14 -0.14)">
    <use xlink:href="#ArialMT-30"/>
    <use xlink:href="#ArialMT-2e" transform="translate(55.615234 0)"/>
    <use xlink:href="#ArialMT-30" transform="translate(83.398438 0)"/>
    <use xlink:href="#ArialMT-35" transform="translate(139.013672 0)"/>
   </g>
  </g>
  <g id="patch_9">
   <path d="M 582.103883 213.849771 
L 595.943883 213.849771 
L 595.943883 200.009771 
L 582.103883 200.009771 
z
" clip-path="url(#p164f2aff8a)" style="fill: #ffffff; stroke: #ffffff; stroke-linejoin: miter"/>
  </g>
  <g id="line2d_11">
   <path d="M 589.023883 206.929771 
" clip-path="url(#p164f2aff8a)" style="fill: none; stroke: #1f77b4; stroke-width: 1.5; stroke-linecap: square"/>
   <defs>
    <path id="m4fc703394a" d="M 0 1.772454 
C 0.47006 1.772454 0.920931 1.585697 1.253314 1.253314 
C 1.585697 0.920931 1.772454 0.47006 1.772454 0 
C 1.772454 -0.47006 1.585697 -0.920931 1.253314 -1.253314 
C 0.920931 -1.585697 0.47006 -1.772454 0 -1.772454 
C -0.47006 -1.772454 -0.920931 -1.585697 -1.253314 -1.253314 
C -1.585697 -0.920931 -1.772454 -0.47006 -1.772454 0 
C -1.772454 0.47006 -1.585697 0.920931 -1.253314 1.253314 
C -0.920931 1.585697 -0.47006 1.772454 0 1.772454 
z
" style="stroke: #696969; stroke-width: 0.886227"/>
   </defs>
   <g clip-path="url(#p164f2aff8a)">
    <use xlink:href="#m4fc703394a" x="589.023883" y="206.929771" style="fill: #696969; stroke: #696969; stroke-width: 0.886227"/>
   </g>
  </g>
  <g id="text_15">
   <!-- NS -->
   <g transform="translate(600.159883 210.548989) scale(0.14 -0.14)">
    <defs>
     <path id="ArialMT-4e" d="M 488 0 
L 488 4581 
L 1109 4581 
L 3516 984 
L 3516 4581 
L 4097 4581 
L 4097 0 
L 3475 0 
L 1069 3600 
L 1069 0 
L 488 0 
z
" transform="scale(0.015625)"/>
    </defs>
    <use xlink:href="#ArialMT-4e"/>
    <use xlink:href="#ArialMT-53" transform="translate(72.216797 0)"/>
   </g>
  </g>
  <g id="text_16">
   <!-- Count -->
   <g transform="translate(581.103883 234.870708) scale(0.14 -0.14)">
    <use xlink:href="#ArialMT-43"/>
    <use xlink:href="#ArialMT-6f" transform="translate(72.216797 0)"/>
    <use xlink:href="#ArialMT-75" transform="translate(127.832031 0)"/>
    <use xlink:href="#ArialMT-6e" transform="translate(183.447266 0)"/>
    <use xlink:href="#ArialMT-74" transform="translate(239.0625 0)"/>
   </g>
  </g>
  <g id="patch_10">
   <path d="M 582.103883 267.3102 
L 607.520875 267.3102 
L 607.520875 241.893208 
L 582.103883 241.893208 
z
" clip-path="url(#p503d9bba8d)" style="fill: #ffffff; stroke: #ffffff; stroke-linejoin: miter"/>
  </g>
  <g id="line2d_12">
   <path d="M 594.812379 254.601704 
" clip-path="url(#p503d9bba8d)" style="fill: none; stroke: #1f77b4; stroke-width: 1.5; stroke-linecap: square"/>
   <defs>
    <path id="m1f5fc6b5b2" d="M 0 9.305383 
C 2.467816 9.305383 4.83489 8.324909 6.579899 6.579899 
C 8.324909 4.83489 9.305383 2.467816 9.305383 0 
C 9.305383 -2.467816 8.324909 -4.83489 6.579899 -6.579899 
C 4.83489 -8.324909 2.467816 -9.305383 0 -9.305383 
C -2.467816 -9.305383 -4.83489 -8.324909 -6.579899 -6.579899 
C -8.324909 -4.83489 -9.305383 -2.467816 -9.305383 0 
C -9.305383 2.467816 -8.324909 4.83489 -6.579899 6.579899 
C -4.83489 8.324909 -2.467816 9.305383 0 9.305383 
z
" style="stroke: #000000; stroke-width: 0.886227"/>
   </defs>
   <g clip-path="url(#p503d9bba8d)">
    <use xlink:href="#m1f5fc6b5b2" x="594.812379" y="254.601704" style="stroke: #000000; stroke-width: 0.886227"/>
   </g>
  </g>
  <g id="text_17">
   <!-- 150 -->
   <g transform="translate(611.736875 258.220923) scale(0.14 -0.14)">
    <use xlink:href="#ArialMT-31"/>
    <use xlink:href="#ArialMT-35" transform="translate(55.615234 0)"/>
    <use xlink:href="#ArialMT-30" transform="translate(111.230469 0)"/>
   </g>
  </g>
  <g id="patch_11">
   <path d="M 582.103883 294.954739 
L 607.520875 294.954739 
L 607.520875 271.3102 
L 582.103883 271.3102 
z
" clip-path="url(#pf4b4057249)" style="fill: #ffffff; stroke: #ffffff; stroke-linejoin: miter"/>
  </g>
  <g id="line2d_13">
   <path d="M 594.812379 283.13247 
" clip-path="url(#pf4b4057249)" style="fill: none; stroke: #1f77b4; stroke-width: 1.5; stroke-linecap: square"/>
   <defs>
    <path id="m336a0fcb1f" d="M 0 8.419156 
C 2.232786 8.419156 4.374424 7.53206 5.953242 5.953242 
C 7.53206 4.374424 8.419156 2.232786 8.419156 0 
C 8.419156 -2.232786 7.53206 -4.374424 5.953242 -5.953242 
C 4.374424 -7.53206 2.232786 -8.419156 0 -8.419156 
C -2.232786 -8.419156 -4.374424 -7.53206 -5.953242 -5.953242 
C -7.53206 -4.374424 -8.419156 -2.232786 -8.419156 0 
C -8.419156 2.232786 -7.53206 4.374424 -5.953242 5.953242 
C -4.374424 7.53206 -2.232786 8.419156 0 8.419156 
z
" style="stroke: #000000; stroke-width: 0.886227"/>
   </defs>
   <g clip-path="url(#pf4b4057249)">
    <use xlink:href="#m336a0fcb1f" x="594.812379" y="283.13247" style="stroke: #000000; stroke-width: 0.886227"/>
   </g>
  </g>
  <g id="text_18">
   <!-- 100 -->
   <g transform="translate(611.736875 286.751688) scale(0.14 -0.14)">
    <use xlink:href="#ArialMT-31"/>
    <use xlink:href="#ArialMT-30" transform="translate(55.615234 0)"/>
    <use xlink:href="#ArialMT-30" transform="translate(111.230469 0)"/>
   </g>
  </g>
  <g id="patch_12">
   <path d="M 582.103883 320.826824 
L 607.520875 320.826824 
L 607.520875 298.954739 
L 582.103883 298.954739 
z
" clip-path="url(#p73b21979f8)" style="fill: #ffffff; stroke: #ffffff; stroke-linejoin: miter"/>
  </g>
  <g id="line2d_14">
   <path d="M 594.812379 309.890781 
" clip-path="url(#p73b21979f8)" style="fill: none; stroke: #1f77b4; stroke-width: 1.5; stroke-linecap: square"/>
   <defs>
    <path id="m12a9efa11c" d="M 0 7.532929 
C 1.997756 7.532929 3.913958 6.739212 5.326585 5.326585 
C 6.739212 3.913958 7.532929 1.997756 7.532929 0 
C 7.532929 -1.997756 6.739212 -3.913958 5.326585 -5.326585 
C 3.913958 -6.739212 1.997756 -7.532929 0 -7.532929 
C -1.997756 -7.532929 -3.913958 -6.739212 -5.326585 -5.326585 
C -6.739212 -3.913958 -7.532929 -1.997756 -7.532929 0 
C -7.532929 1.997756 -6.739212 3.913958 -5.326585 5.326585 
C -3.913958 6.739212 -1.997756 7.532929 0 7.532929 
z
" style="stroke: #000000; stroke-width: 0.886227"/>
   </defs>
   <g clip-path="url(#p73b21979f8)">
    <use xlink:href="#m12a9efa11c" x="594.812379" y="309.890781" style="stroke: #000000; stroke-width: 0.886227"/>
   </g>
  </g>
  <g id="text_19">
   <!-- 75 -->
   <g transform="translate(611.736875 313.51) scale(0.14 -0.14)">
    <defs>
     <path id="ArialMT-37" d="M 303 3981 
L 303 4522 
L 3269 4522 
L 3269 4084 
Q 2831 3619 2401 2847 
Q 1972 2075 1738 1259 
Q 1569 684 1522 0 
L 944 0 
Q 953 541 1156 1306 
Q 1359 2072 1739 2783 
Q 2119 3494 2547 3981 
L 303 3981 
z
" transform="scale(0.015625)"/>
    </defs>
    <use xlink:href="#ArialMT-37"/>
    <use xlink:href="#ArialMT-35" transform="translate(55.615234 0)"/>
   </g>
  </g>
  <g id="patch_13">
   <path d="M 582.103883 344.926454 
L 607.520875 344.926454 
L 607.520875 324.826824 
L 582.103883 324.826824 
z
" clip-path="url(#p2ce9f6c3b2)" style="fill: #ffffff; stroke: #ffffff; stroke-linejoin: miter"/>
  </g>
  <g id="line2d_15">
   <path d="M 594.812379 334.876639 
" clip-path="url(#p2ce9f6c3b2)" style="fill: none; stroke: #1f77b4; stroke-width: 1.5; stroke-linecap: square"/>
   <defs>
    <path id="m57c0f77c9a" d="M 0 6.646702 
C 1.762726 6.646702 3.453493 5.946363 4.699928 4.699928 
C 5.946363 3.453493 6.646702 1.762726 6.646702 0 
C 6.646702 -1.762726 5.946363 -3.453493 4.699928 -4.699928 
C 3.453493 -5.946363 1.762726 -6.646702 0 -6.646702 
C -1.762726 -6.646702 -3.453493 -5.946363 -4.699928 -4.699928 
C -5.946363 -3.453493 -6.646702 -1.762726 -6.646702 0 
C -6.646702 1.762726 -5.946363 3.453493 -4.699928 4.699928 
C -3.453493 5.946363 -1.762726 6.646702 0 6.646702 
z
" style="stroke: #000000; stroke-width: 0.886227"/>
   </defs>
   <g clip-path="url(#p2ce9f6c3b2)">
    <use xlink:href="#m57c0f77c9a" x="594.812379" y="334.876639" style="stroke: #000000; stroke-width: 0.886227"/>
   </g>
  </g>
  <g id="text_20">
   <!-- 50 -->
   <g transform="translate(611.736875 338.495858) scale(0.14 -0.14)">
    <use xlink:href="#ArialMT-35"/>
    <use xlink:href="#ArialMT-30" transform="translate(55.615234 0)"/>
   </g>
  </g>
  <g id="patch_14">
   <path d="M 582.103883 367.253631 
L 607.520875 367.253631 
L 607.520875 348.926454 
L 582.103883 348.926454 
z
" clip-path="url(#p705c05fdb3)" style="fill: #ffffff; stroke: #ffffff; stroke-linejoin: miter"/>
  </g>
  <g id="line2d_16">
   <path d="M 594.812379 358.090043 
" clip-path="url(#p705c05fdb3)" style="fill: none; stroke: #1f77b4; stroke-width: 1.5; stroke-linecap: square"/>
   <defs>
    <path id="mad18bc2572" d="M 0 5.760475 
C 1.527696 5.760475 2.993027 5.153515 4.073271 4.073271 
C 5.153515 2.993027 5.760475 1.527696 5.760475 0 
C 5.760475 -1.527696 5.153515 -2.993027 4.073271 -4.073271 
C 2.993027 -5.153515 1.527696 -5.760475 0 -5.760475 
C -1.527696 -5.760475 -2.993027 -5.153515 -4.073271 -4.073271 
C -5.153515 -2.993027 -5.760475 -1.527696 -5.760475 0 
C -5.760475 1.527696 -5.153515 2.993027 -4.073271 4.073271 
C -2.993027 5.153515 -1.527696 5.760475 0 5.760475 
z
" style="stroke: #000000; stroke-width: 0.886227"/>
   </defs>
   <g clip-path="url(#p705c05fdb3)">
    <use xlink:href="#mad18bc2572" x="594.812379" y="358.090043" style="stroke: #000000; stroke-width: 0.886227"/>
   </g>
  </g>
  <g id="text_21">
   <!-- 25 -->
   <g transform="translate(611.736875 361.709262) scale(0.14 -0.14)">
    <use xlink:href="#ArialMT-32"/>
    <use xlink:href="#ArialMT-35" transform="translate(55.615234 0)"/>
   </g>
  </g>
  <g id="patch_15">
   <path d="M 582.103883 387.808354 
L 607.520875 387.808354 
L 607.520875 371.253631 
L 582.103883 371.253631 
z
" clip-path="url(#pd3ad7dc193)" style="fill: #ffffff; stroke: #ffffff; stroke-linejoin: miter"/>
  </g>
  <g id="line2d_17">
   <path d="M 594.812379 379.530993 
" clip-path="url(#pd3ad7dc193)" style="fill: none; stroke: #1f77b4; stroke-width: 1.5; stroke-linecap: square"/>
   <defs>
    <path id="ma66348dfbd" d="M 0 4.874248 
C 1.292666 4.874248 2.532561 4.360667 3.446614 3.446614 
C 4.360667 2.532561 4.874248 1.292666 4.874248 0 
C 4.874248 -1.292666 4.360667 -2.532561 3.446614 -3.446614 
C 2.532561 -4.360667 1.292666 -4.874248 0 -4.874248 
C -1.292666 -4.874248 -2.532561 -4.360667 -3.446614 -3.446614 
C -4.360667 -2.532561 -4.874248 -1.292666 -4.874248 0 
C -4.874248 1.292666 -4.360667 2.532561 -3.446614 3.446614 
C -2.532561 4.360667 -1.292666 4.874248 0 4.874248 
z
" style="stroke: #000000; stroke-width: 0.886227"/>
   </defs>
   <g clip-path="url(#pd3ad7dc193)">
    <use xlink:href="#ma66348dfbd" x="594.812379" y="379.530993" style="stroke: #000000; stroke-width: 0.886227"/>
   </g>
  </g>
  <g id="text_22">
   <!-- 10 -->
   <g transform="translate(611.736875 383.150212) scale(0.14 -0.14)">
    <use xlink:href="#ArialMT-31"/>
    <use xlink:href="#ArialMT-30" transform="translate(55.615234 0)"/>
   </g>
  </g>
  <g id="patch_16">
   <path d="M 582.103883 405.648354 
L 607.520875 405.648354 
L 607.520875 391.808354 
L 582.103883 391.808354 
z
" clip-path="url(#p3dec0a0fdc)" style="fill: #ffffff; stroke: #ffffff; stroke-linejoin: miter"/>
  </g>
  <g id="line2d_18">
   <path d="M 594.812379 398.728354 
" clip-path="url(#p3dec0a0fdc)" style="fill: none; stroke: #1f77b4; stroke-width: 1.5; stroke-linecap: square"/>
   <defs>
    <path id="md3ed8edab4" d="M 0 2.658681 
C 0.70509 2.658681 1.381397 2.378545 1.879971 1.879971 
C 2.378545 1.381397 2.658681 0.70509 2.658681 0 
C 2.658681 -0.70509 2.378545 -1.381397 1.879971 -1.879971 
C 1.381397 -2.378545 0.70509 -2.658681 0 -2.658681 
C -0.70509 -2.658681 -1.381397 -2.378545 -1.879971 -1.879971 
C -2.378545 -1.381397 -2.658681 -0.70509 -2.658681 0 
C -2.658681 0.70509 -2.378545 1.381397 -1.879971 1.879971 
C -1.381397 2.378545 -0.70509 2.658681 0 2.658681 
z
" style="stroke: #000000; stroke-width: 0.886227"/>
   </defs>
   <g clip-path="url(#p3dec0a0fdc)">
    <use xlink:href="#md3ed8edab4" x="594.812379" y="398.728354" style="stroke: #000000; stroke-width: 0.886227"/>
   </g>
  </g>
  <g id="text_23">
   <!-- 5 -->
   <g transform="translate(611.736875 402.347573) scale(0.14 -0.14)">
    <use xlink:href="#ArialMT-35"/>
   </g>
  </g>
  <g id="patch_17">
   <path d="M 582.103883 423.488354 
L 607.520875 423.488354 
L 607.520875 409.648354 
L 582.103883 409.648354 
z
" clip-path="url(#p04c3a87c95)" style="fill: #ffffff; stroke: #ffffff; stroke-linejoin: miter"/>
  </g>
  <g id="line2d_19">
   <path d="M 594.812379 416.568354 
" clip-path="url(#p04c3a87c95)" style="fill: none; stroke: #1f77b4; stroke-width: 1.5; stroke-linecap: square"/>
   <defs>
    <path id="m5c81e8b62a" d="M 0 1.32934 
C 0.352545 1.32934 0.690699 1.189273 0.939986 0.939986 
C 1.189273 0.690699 1.32934 0.352545 1.32934 0 
C 1.32934 -0.352545 1.189273 -0.690699 0.939986 -0.939986 
C 0.690699 -1.189273 0.352545 -1.32934 0 -1.32934 
C -0.352545 -1.32934 -0.690699 -1.189273 -0.939986 -0.939986 
C -1.189273 -0.690699 -1.32934 -0.352545 -1.32934 0 
C -1.32934 0.352545 -1.189273 0.690699 -0.939986 0.939986 
C -0.690699 1.189273 -0.352545 1.32934 0 1.32934 
z
" style="stroke: #000000; stroke-width: 0.886227"/>
   </defs>
   <g clip-path="url(#p04c3a87c95)">
    <use xlink:href="#m5c81e8b62a" x="594.812379" y="416.568354" style="stroke: #000000; stroke-width: 0.886227"/>
   </g>
  </g>
  <g id="text_24">
   <!-- 2 -->
   <g transform="translate(611.736875 420.187573) scale(0.14 -0.14)">
    <use xlink:href="#ArialMT-32"/>
   </g>
  </g>
  <g id="patch_18">
   <path d="M 582.103883 441.328354 
L 607.520875 441.328354 
L 607.520875 427.488354 
L 582.103883 427.488354 
z
" clip-path="url(#pfdb595d1ea)" style="fill: #ffffff; stroke: #ffffff; stroke-linejoin: miter"/>
  </g>
  <g id="line2d_20">
   <path d="M 594.812379 434.408354 
" clip-path="url(#pfdb595d1ea)" style="fill: none; stroke: #1f77b4; stroke-width: 1.5; stroke-linecap: square"/>
   <defs>
    <path id="m27eed10ff6" d="M 0 0.531736 
C 0.141018 0.531736 0.276279 0.475709 0.375994 0.375994 
C 0.475709 0.276279 0.531736 0.141018 0.531736 0 
C 0.531736 -0.141018 0.475709 -0.276279 0.375994 -0.375994 
C 0.276279 -0.475709 0.141018 -0.531736 0 -0.531736 
C -0.141018 -0.531736 -0.276279 -0.475709 -0.375994 -0.375994 
C -0.475709 -0.276279 -0.531736 -0.141018 -0.531736 0 
C -0.531736 0.141018 -0.475709 0.276279 -0.375994 0.375994 
C -0.276279 0.475709 -0.141018 0.531736 0 0.531736 
z
" style="stroke: #000000; stroke-width: 0.886227"/>
   </defs>
   <g clip-path="url(#pfdb595d1ea)">
    <use xlink:href="#m27eed10ff6" x="594.812379" y="434.408354" style="stroke: #000000; stroke-width: 0.886227"/>
   </g>
  </g>
  <g id="text_25">
   <!-- Zero -->
   <g transform="translate(611.736875 438.027573) scale(0.14 -0.14)">
    <defs>
     <path id="ArialMT-5a" d="M 128 0 
L 128 563 
L 2475 3497 
Q 2725 3809 2950 4041 
L 394 4041 
L 394 4581 
L 3675 4581 
L 3675 4041 
L 1103 863 
L 825 541 
L 3750 541 
L 3750 0 
L 128 0 
z
" transform="scale(0.015625)"/>
    </defs>
    <use xlink:href="#ArialMT-5a"/>
    <use xlink:href="#ArialMT-65" transform="translate(61.083984 0)"/>
    <use xlink:href="#ArialMT-72" transform="translate(116.699219 0)"/>
    <use xlink:href="#ArialMT-6f" transform="translate(150 0)"/>
   </g>
  </g>
 </g>
 <defs>
  <clipPath id="pe3e145645d">
   <rect x="149.902813" y="61.618125" width="410.76107" height="395.018438"/>
  </clipPath>
  <clipPath id="p17a8d41768">
   <path d="M 581.103883 107.809771 
L 581.103883 91.969771 
L 596.943883 91.969771 
L 596.943883 107.809771 
"/>
  </clipPath>
  <clipPath id="p6f775b6aaa">
   <path d="M 581.103883 125.649771 
L 581.103883 109.809771 
L 596.943883 109.809771 
L 596.943883 125.649771 
"/>
  </clipPath>
  <clipPath id="p9a28e13ed1">
   <path d="M 581.103883 143.489771 
L 581.103883 127.649771 
L 596.943883 127.649771 
L 596.943883 143.489771 
"/>
  </clipPath>
  <clipPath id="pdc1495902d">
   <path d="M 581.103883 161.329771 
L 581.103883 145.489771 
L 596.943883 145.489771 
L 596.943883 161.329771 
"/>
  </clipPath>
  <clipPath id="p61badd5118">
   <path d="M 581.103883 179.169771 
L 581.103883 163.329771 
L 596.943883 163.329771 
L 596.943883 179.169771 
"/>
  </clipPath>
  <clipPath id="p6f8bafe40a">
   <path d="M 581.103883 197.009771 
L 581.103883 181.169771 
L 596.943883 181.169771 
L 596.943883 197.009771 
"/>
  </clipPath>
  <clipPath id="p164f2aff8a">
   <path d="M 581.103883 214.849771 
L 581.103883 199.009771 
L 596.943883 199.009771 
L 596.943883 214.849771 
"/>
  </clipPath>
  <clipPath id="p503d9bba8d">
   <path d="M 581.103883 268.3102 
L 581.103883 240.893208 
L 608.520875 240.893208 
L 608.520875 268.3102 
"/>
  </clipPath>
  <clipPath id="pf4b4057249">
   <path d="M 581.103883 295.954739 
L 581.103883 270.3102 
L 608.520875 270.3102 
L 608.520875 295.954739 
"/>
  </clipPath>
  <clipPath id="p73b21979f8">
   <path d="M 581.103883 321.826824 
L 581.103883 297.954739 
L 608.520875 297.954739 
L 608.520875 321.826824 
"/>
  </clipPath>
  <clipPath id="p2ce9f6c3b2">
   <path d="M 581.103883 345.926454 
L 581.103883 323.826824 
L 608.520875 323.826824 
L 608.520875 345.926454 
"/>
  </clipPath>
  <clipPath id="p705c05fdb3">
   <path d="M 581.103883 368.253631 
L 581.103883 347.926454 
L 608.520875 347.926454 
L 608.520875 368.253631 
"/>
  </clipPath>
  <clipPath id="pd3ad7dc193">
   <path d="M 581.103883 388.808354 
L 581.103883 370.253631 
L 608.520875 370.253631 
L 608.520875 388.808354 
"/>
  </clipPath>
  <clipPath id="p3dec0a0fdc">
   <path d="M 581.103883 406.648354 
L 581.103883 390.808354 
L 608.520875 390.808354 
L 608.520875 406.648354 
"/>
  </clipPath>
  <clipPath id="p04c3a87c95">
   <path d="M 581.103883 424.488354 
L 581.103883 408.648354 
L 608.520875 408.648354 
L 608.520875 424.488354 
"/>
  </clipPath>
  <clipPath id="pfdb595d1ea">
   <path d="M 581.103883 442.328354 
L 581.103883 426.488354 
L 608.520875 426.488354 
L 608.520875 442.328354 
"/>
  </clipPath>
 </defs>
</svg>
